<svg width="52" height="16" viewBox="0 0 52 16" fill="none" xmlns="http://www.w3.org/2000/svg">
<path fill-rule="evenodd" clip-rule="evenodd" d="M3.96368 13.0093H10.254C10.3275 13.0093 10.3275 13.0482 10.254 13.0871C9.5552 13.4373 8.52509 14.528 8.52509 14.528C7.8263 15.2685 7.27449 15.7354 6.06035 15.7354H0.0275607C-0.00918692 15.7354 -0.00918692 15.6576 0.0275607 15.6576C0.689607 15.2685 1.68297 14.1778 1.68297 14.1778C2.08749 13.6714 2.93357 13.0093 3.96368 13.0093ZM45.3116 13.0093H51.6389C51.6757 13.0093 51.6757 13.0482 51.6389 13.0871C50.9034 13.4373 49.91 14.528 49.91 14.528C49.1739 15.2685 48.6221 15.7354 47.445 15.7354H41.4122C41.3754 15.7354 41.3754 15.6576 41.4122 15.6576C42.0742 15.2685 43.0676 14.1778 43.0676 14.1778C43.4724 13.6714 44.2814 13.0093 45.3116 13.0093ZM14.3006 13.0093H20.591C20.6645 13.0093 20.6645 13.0482 20.591 13.0871C19.8922 13.4373 18.8621 14.528 18.8621 14.528C18.1633 15.2685 17.6115 15.7354 16.3973 15.7354H10.4013C10.3278 15.7354 10.3278 15.6576 10.3645 15.6576C11.0266 15.2685 12.0199 14.1778 12.0199 14.1778C12.4248 13.6714 13.2708 13.0093 14.3006 13.0093ZM24.6376 13.0093H30.9282C31.0017 13.0093 31.0017 13.0482 30.9282 13.0871C30.2294 13.4373 29.1993 14.528 29.1993 14.528C28.4999 15.2685 27.9487 15.7354 26.771 15.7354H20.7382C20.7015 15.7354 20.7015 15.6576 20.7015 15.6576C21.4003 15.2685 22.3569 14.1778 22.3569 14.1778C22.7617 13.6714 23.6078 13.0093 24.6376 13.0093ZM34.9746 13.0093H41.3019C41.3387 13.0093 41.3387 13.0482 41.2652 13.0871C40.5664 13.4373 39.5363 14.528 39.5363 14.528C38.8369 15.2685 38.2851 15.7354 37.108 15.7354H31.0752C31.0385 15.7354 31.0385 15.6576 31.0752 15.6576C31.7373 15.2685 32.7306 14.1778 32.7306 14.1778C33.0987 13.6714 33.9445 13.0093 34.9746 13.0093Z" fill="#28539C"/>
<path fill-rule="evenodd" clip-rule="evenodd" d="M36.1244 0C32.151 0 29.5025 2.1811 29.5025 5.49213C29.5025 8.53047 31.9308 10.5556 35.5353 10.5556C36.713 10.5556 37.7431 10.4 38.9569 10.0492V7.5179C38.1106 8.53047 37.0805 8.91957 35.9769 8.91957C33.8431 8.91957 32.3721 7.43977 32.3721 5.25867C32.3721 3.11617 33.8799 1.55824 36.0136 1.55824C37.154 1.55824 38.0738 2.02546 38.81 2.84349V0.272676C38.0371 0.116728 37.0805 0 36.1244 0ZM6.47435 1.79139C7.94573 1.79139 9.71168 2.10297 10.4475 2.76505V0.350184H0V2.76505C0.735541 2.10297 2.31746 1.83029 4.00961 1.83029V8.45203C4.00961 9.42539 3.93612 9.69838 3.56835 10.2048H6.91591C6.54814 9.69838 6.47435 9.42539 6.47435 8.45203V1.79139ZM17.1426 4.16765C16.5541 4.40142 15.4505 4.44033 14.8987 4.44033H14.0156V1.83061H15.1927C16.2595 1.83061 18.0619 2.06406 18.761 2.72645V0.350495H11.1463C11.5141 0.817717 11.5876 1.1293 11.5876 2.06406V8.45203C11.5876 9.42539 11.5141 9.69838 11.1831 10.2048H19.2761V7.78964C18.1725 8.68549 16.039 8.68549 15.193 8.68549H14.0156V5.92013H14.8616C15.4502 5.92013 16.5171 5.99795 17.1423 6.23171L17.1426 4.16765ZM28.4356 0.66208C27.2218 0.233767 25.6399 0 24.426 0C22.2188 0 20.0851 0.7399 20.0851 3.2329C20.0851 7.51759 26.7064 5.25836 26.7064 7.9073C26.7064 8.76393 25.5293 9.11474 24.573 9.11474C22.8809 9.11474 21.7038 8.80284 20.2321 7.79026V9.97136C21.3357 10.3611 22.8441 10.5945 24.4625 10.5945C26.7432 10.5945 28.8769 9.89354 28.8769 7.36195C28.8769 2.8438 22.2923 4.86926 22.2923 2.68785C22.2923 1.79201 23.3592 1.48042 24.2787 1.48042C25.8239 1.48042 27.5161 1.98655 28.4353 2.96053L28.4356 0.66208ZM45.4316 0.155637C41.8629 0.155637 39.3247 2.33674 39.3247 5.414C39.3247 8.45234 41.606 10.4386 44.9533 10.4386C48.5581 10.4386 51.0596 8.33562 51.0596 5.21945C51.0596 2.1811 48.7789 0.155637 45.4316 0.155637ZM45.1738 8.95879C43.2611 8.95879 42.0467 7.32273 42.0467 5.29727C42.0467 3.27181 43.2611 1.63575 45.1738 1.63575C47.0497 1.63575 48.3008 3.27181 48.3008 5.29727C48.3008 7.32273 47.0497 8.95879 45.1738 8.95879Z" fill="#CC2131"/>
</svg>
